<svg xmlns="http://www.w3.org/2000/svg" width="192" height="192" viewBox="0 0 192 192">
  <rect width="192" height="192" rx="40" fill="#0EA5E9"/>
  <!-- Clipboard body -->
  <rect x="52" y="38" width="88" height="114" rx="14" fill="white"/>
  <!-- Clipboard inner -->
  <rect x="60" y="54" width="72" height="90" rx="6" fill="#F0F9FF"/>
  <!-- Clip -->
  <rect x="80" y="30" width="32" height="20" rx="6" fill="white"/>
  <rect x="74" y="46" width="44" height="8" rx="4" fill="#E0F2FE"/>
  <!-- Pen body -->
  <rect x="100" y="86" width="10" height="72" rx="4" fill="#F59E0B" transform="rotate(25 105 122)"/>
  <!-- Pen nib -->
  <polygon points="110,148 106,164 102,148" fill="#F59E0B" transform="rotate(25 106 156)"/>
  <!-- Pen tip -->
  <circle cx="106" cy="164" r="3" fill="#1E293B" transform="rotate(25 106 164)"/>
  <!-- Lines on clipboard -->
  <rect x="68" y="66" width="56" height="4" rx="2" fill="#BAE6FD"/>
  <rect x="68" y="78" width="44" height="4" rx="2" fill="#BAE6FD"/>
  <rect x="68" y="90" width="52" height="4" rx="2" fill="#BAE6FD"/>
  <rect x="68" y="102" width="36" height="4" rx="2" fill="#BAE6FD"/>
  <rect x="68" y="114" width="48" height="4" rx="2" fill="#BAE6FD"/>
</svg>
